<?xml version="1.0" encoding="UTF-8"?>
<svg xmlns="http://www.w3.org/2000/svg" width="900" height="812" viewBox="0 0 64 60" preserveAspectRatio="none" shape-rendering="crispEdges">
  <rect x="8" y="0" width="48" height="1" fill="#69c9e0"/>
  <rect x="6" y="1" width="2" height="1" fill="#69c9e0"/>
  <rect x="8" y="1" width="48" height="1" fill="#99d9ea"/>
  <rect x="56" y="1" width="2" height="1" fill="#69c9e0"/>
  <rect x="5" y="2" width="1" height="1" fill="#69c9e0"/>
  <rect x="6" y="2" width="52" height="1" fill="#99d9ea"/>
  <rect x="58" y="2" width="1" height="1" fill="#69c9e0"/>
  <rect x="4" y="3" width="1" height="1" fill="#69c9e0"/>
  <rect x="5" y="3" width="54" height="1" fill="#99d9ea"/>
  <rect x="59" y="3" width="1" height="1" fill="#69c9e0"/>
  <rect x="3" y="4" width="1" height="1" fill="#69c9e0"/>
  <rect x="4" y="4" width="37" height="1" fill="#99d9ea"/>
  <rect x="41" y="4" width="6" height="1" fill="#ffc90e"/>
  <rect x="47" y="4" width="13" height="1" fill="#99d9ea"/>
  <rect x="60" y="4" width="1" height="1" fill="#69c9e0"/>
  <rect x="2" y="5" width="1" height="1" fill="#69c9e0"/>
  <rect x="3" y="5" width="30" height="1" fill="#99d9ea"/>
  <rect x="33" y="5" width="14" height="1" fill="#ffc90e"/>
  <rect x="47" y="5" width="14" height="1" fill="#99d9ea"/>
  <rect x="61" y="5" width="1" height="1" fill="#69c9e0"/>
  <rect x="1" y="6" width="1" height="1" fill="#69c9e0"/>
  <rect x="2" y="6" width="31" height="1" fill="#99d9ea"/>
  <rect x="33" y="6" width="8" height="1" fill="#ffc90e"/>
  <rect x="41" y="6" width="6" height="1" fill="#99d9ea"/>
  <rect x="47" y="6" width="2" height="1" fill="#ffc90e"/>
  <rect x="49" y="6" width="13" height="1" fill="#99d9ea"/>
  <rect x="62" y="6" width="1" height="1" fill="#69c9e0"/>
  <rect x="1" y="7" width="1" height="1" fill="#69c9e0"/>
  <rect x="2" y="7" width="26" height="1" fill="#99d9ea"/>
  <rect x="28" y="7" width="5" height="1" fill="#ffc90e"/>
  <rect x="33" y="7" width="14" height="1" fill="#99d9ea"/>
  <rect x="47" y="7" width="2" height="1" fill="#ffc90e"/>
  <rect x="49" y="7" width="13" height="1" fill="#99d9ea"/>
  <rect x="62" y="7" width="1" height="1" fill="#69c9e0"/>
  <rect x="0" y="8" width="1" height="1" fill="#69c9e0"/>
  <rect x="1" y="8" width="27" height="1" fill="#99d9ea"/>
  <rect x="28" y="8" width="5" height="1" fill="#ffc90e"/>
  <rect x="33" y="8" width="16" height="1" fill="#99d9ea"/>
  <rect x="49" y="8" width="2" height="1" fill="#ffc90e"/>
  <rect x="51" y="8" width="12" height="1" fill="#99d9ea"/>
  <rect x="63" y="8" width="1" height="1" fill="#69c9e0"/>
  <rect x="0" y="9" width="1" height="1" fill="#69c9e0"/>
  <rect x="1" y="9" width="23" height="1" fill="#99d9ea"/>
  <rect x="24" y="9" width="4" height="1" fill="#ffc90e"/>
  <rect x="28" y="9" width="21" height="1" fill="#99d9ea"/>
  <rect x="49" y="9" width="2" height="1" fill="#ffc90e"/>
  <rect x="51" y="9" width="12" height="1" fill="#99d9ea"/>
  <rect x="63" y="9" width="1" height="1" fill="#69c9e0"/>
  <rect x="0" y="10" width="1" height="1" fill="#69c9e0"/>
  <rect x="1" y="10" width="23" height="1" fill="#99d9ea"/>
  <rect x="24" y="10" width="4" height="1" fill="#ffc90e"/>
  <rect x="28" y="10" width="21" height="1" fill="#99d9ea"/>
  <rect x="49" y="10" width="2" height="1" fill="#ffc90e"/>
  <rect x="51" y="10" width="12" height="1" fill="#99d9ea"/>
  <rect x="63" y="10" width="1" height="1" fill="#69c9e0"/>
  <rect x="0" y="11" width="1" height="1" fill="#69c9e0"/>
  <rect x="1" y="11" width="21" height="1" fill="#99d9ea"/>
  <rect x="22" y="11" width="2" height="1" fill="#ffc90e"/>
  <rect x="24" y="11" width="25" height="1" fill="#99d9ea"/>
  <rect x="49" y="11" width="2" height="1" fill="#ffc90e"/>
  <rect x="51" y="11" width="12" height="1" fill="#99d9ea"/>
  <rect x="63" y="11" width="1" height="1" fill="#69c9e0"/>
  <rect x="0" y="12" width="1" height="1" fill="#69c9e0"/>
  <rect x="1" y="12" width="21" height="1" fill="#99d9ea"/>
  <rect x="22" y="12" width="2" height="1" fill="#ffc90e"/>
  <rect x="24" y="12" width="23" height="1" fill="#99d9ea"/>
  <rect x="47" y="12" width="2" height="1" fill="#ffc90e"/>
  <rect x="49" y="12" width="14" height="1" fill="#99d9ea"/>
  <rect x="63" y="12" width="1" height="1" fill="#69c9e0"/>
  <rect x="0" y="13" width="1" height="1" fill="#69c9e0"/>
  <rect x="1" y="13" width="11" height="1" fill="#99d9ea"/>
  <rect x="12" y="13" width="13" height="1" fill="#7f7f7f"/>
  <rect x="25" y="13" width="8" height="1" fill="#99d9ea"/>
  <rect x="33" y="13" width="1" height="1" fill="#b61212"/>
  <rect x="34" y="13" width="4" height="1" fill="#d21515"/>
  <rect x="38" y="13" width="1" height="1" fill="#b61212"/>
  <rect x="39" y="13" width="7" height="1" fill="#99d9ea"/>
  <rect x="46" y="13" width="1" height="1" fill="#b61212"/>
  <rect x="47" y="13" width="4" height="1" fill="#d21515"/>
  <rect x="51" y="13" width="1" height="1" fill="#b61212"/>
  <rect x="52" y="13" width="11" height="1" fill="#99d9ea"/>
  <rect x="63" y="13" width="1" height="1" fill="#69c9e0"/>
  <rect x="0" y="14" width="1" height="1" fill="#69c9e0"/>
  <rect x="1" y="14" width="11" height="1" fill="#99d9ea"/>
  <rect x="12" y="14" width="1" height="1" fill="#7f7f7f"/>
  <rect x="13" y="14" width="12" height="1" fill="#9e9e9e"/>
  <rect x="25" y="14" width="8" height="1" fill="#99d9ea"/>
  <rect x="33" y="14" width="1" height="1" fill="#b61212"/>
  <rect x="34" y="14" width="4" height="1" fill="#d21515"/>
  <rect x="38" y="14" width="1" height="1" fill="#b61212"/>
  <rect x="39" y="14" width="5" height="1" fill="#99d9ea"/>
  <rect x="44" y="14" width="2" height="1" fill="#ffc90e"/>
  <rect x="46" y="14" width="1" height="1" fill="#b61212"/>
  <rect x="47" y="14" width="4" height="1" fill="#d21515"/>
  <rect x="51" y="14" width="1" height="1" fill="#b61212"/>
  <rect x="52" y="14" width="11" height="1" fill="#99d9ea"/>
  <rect x="63" y="14" width="1" height="1" fill="#69c9e0"/>
  <rect x="0" y="15" width="1" height="1" fill="#69c9e0"/>
  <rect x="1" y="15" width="11" height="1" fill="#99d9ea"/>
  <rect x="12" y="15" width="1" height="1" fill="#7f7f7f"/>
  <rect x="13" y="15" width="12" height="1" fill="#9e9e9e"/>
  <rect x="25" y="15" width="3" height="1" fill="#7f7f7f"/>
  <rect x="28" y="15" width="5" height="1" fill="#99d9ea"/>
  <rect x="33" y="15" width="1" height="1" fill="#b61212"/>
  <rect x="34" y="15" width="4" height="1" fill="#d21515"/>
  <rect x="38" y="15" width="1" height="1" fill="#b61212"/>
  <rect x="39" y="15" width="5" height="1" fill="#99d9ea"/>
  <rect x="44" y="15" width="2" height="1" fill="#ffc90e"/>
  <rect x="46" y="15" width="1" height="1" fill="#b61212"/>
  <rect x="47" y="15" width="4" height="1" fill="#d21515"/>
  <rect x="51" y="15" width="1" height="1" fill="#b61212"/>
  <rect x="52" y="15" width="11" height="1" fill="#99d9ea"/>
  <rect x="63" y="15" width="1" height="1" fill="#69c9e0"/>
  <rect x="0" y="16" width="1" height="1" fill="#69c9e0"/>
  <rect x="1" y="16" width="11" height="1" fill="#99d9ea"/>
  <rect x="12" y="16" width="1" height="1" fill="#7f7f7f"/>
  <rect x="13" y="16" width="4" height="1" fill="#9e9e9e"/>
  <rect x="17" y="16" width="5" height="1" fill="#7f7f7f"/>
  <rect x="22" y="16" width="6" height="1" fill="#9e9e9e"/>
  <rect x="28" y="16" width="5" height="1" fill="#99d9ea"/>
  <rect x="33" y="16" width="1" height="1" fill="#b61212"/>
  <rect x="34" y="16" width="4" height="1" fill="#d21515"/>
  <rect x="38" y="16" width="1" height="1" fill="#b61212"/>
  <rect x="39" y="16" width="1" height="1" fill="#99d9ea"/>
  <rect x="40" y="16" width="4" height="1" fill="#ffc90e"/>
  <rect x="44" y="16" width="2" height="1" fill="#99d9ea"/>
  <rect x="46" y="16" width="1" height="1" fill="#b61212"/>
  <rect x="47" y="16" width="4" height="1" fill="#d21515"/>
  <rect x="51" y="16" width="1" height="1" fill="#b61212"/>
  <rect x="52" y="16" width="11" height="1" fill="#99d9ea"/>
  <rect x="63" y="16" width="1" height="1" fill="#69c9e0"/>
  <rect x="0" y="17" width="1" height="1" fill="#69c9e0"/>
  <rect x="1" y="17" width="11" height="1" fill="#99d9ea"/>
  <rect x="12" y="17" width="1" height="1" fill="#7f7f7f"/>
  <rect x="13" y="17" width="3" height="1" fill="#9e9e9e"/>
  <rect x="16" y="17" width="1" height="1" fill="#7f7f7f"/>
  <rect x="17" y="17" width="4" height="1" fill="#99d9ea"/>
  <rect x="21" y="17" width="1" height="1" fill="#ffc90e"/>
  <rect x="22" y="17" width="1" height="1" fill="#7f7f7f"/>
  <rect x="23" y="17" width="6" height="1" fill="#9e9e9e"/>
  <rect x="29" y="17" width="1" height="1" fill="#7f7f7f"/>
  <rect x="30" y="17" width="3" height="1" fill="#99d9ea"/>
  <rect x="33" y="17" width="1" height="1" fill="#b61212"/>
  <rect x="34" y="17" width="5" height="1" fill="#d21515"/>
  <rect x="39" y="17" width="2" height="1" fill="#b61212"/>
  <rect x="41" y="17" width="3" height="1" fill="#ffc90e"/>
  <rect x="44" y="17" width="2" height="1" fill="#99d9ea"/>
  <rect x="46" y="17" width="1" height="1" fill="#b61212"/>
  <rect x="47" y="17" width="4" height="1" fill="#d21515"/>
  <rect x="51" y="17" width="1" height="1" fill="#b61212"/>
  <rect x="52" y="17" width="11" height="1" fill="#99d9ea"/>
  <rect x="63" y="17" width="1" height="1" fill="#69c9e0"/>
  <rect x="0" y="18" width="1" height="1" fill="#69c9e0"/>
  <rect x="1" y="18" width="11" height="1" fill="#99d9ea"/>
  <rect x="12" y="18" width="1" height="1" fill="#7f7f7f"/>
  <rect x="13" y="18" width="3" height="1" fill="#9e9e9e"/>
  <rect x="16" y="18" width="1" height="1" fill="#7f7f7f"/>
  <rect x="17" y="18" width="4" height="1" fill="#99d9ea"/>
  <rect x="21" y="18" width="1" height="1" fill="#ffc90e"/>
  <rect x="22" y="18" width="1" height="1" fill="#7f7f7f"/>
  <rect x="23" y="18" width="6" height="1" fill="#9e9e9e"/>
  <rect x="29" y="18" width="1" height="1" fill="#7f7f7f"/>
  <rect x="30" y="18" width="3" height="1" fill="#99d9ea"/>
  <rect x="33" y="18" width="1" height="1" fill="#b61212"/>
  <rect x="34" y="18" width="7" height="1" fill="#d21515"/>
  <rect x="41" y="18" width="5" height="1" fill="#99d9ea"/>
  <rect x="46" y="18" width="1" height="1" fill="#b61212"/>
  <rect x="47" y="18" width="4" height="1" fill="#d21515"/>
  <rect x="51" y="18" width="1" height="1" fill="#b61212"/>
  <rect x="52" y="18" width="11" height="1" fill="#99d9ea"/>
  <rect x="63" y="18" width="1" height="1" fill="#69c9e0"/>
  <rect x="0" y="19" width="1" height="1" fill="#69c9e0"/>
  <rect x="1" y="19" width="11" height="1" fill="#99d9ea"/>
  <rect x="12" y="19" width="1" height="1" fill="#7f7f7f"/>
  <rect x="13" y="19" width="3" height="1" fill="#9e9e9e"/>
  <rect x="16" y="19" width="1" height="1" fill="#7f7f7f"/>
  <rect x="17" y="19" width="5" height="1" fill="#99d9ea"/>
  <rect x="22" y="19" width="2" height="1" fill="#ffc90e"/>
  <rect x="24" y="19" width="1" height="1" fill="#7f7f7f"/>
  <rect x="25" y="19" width="4" height="1" fill="#9e9e9e"/>
  <rect x="29" y="19" width="1" height="1" fill="#7f7f7f"/>
  <rect x="30" y="19" width="3" height="1" fill="#ffc90e"/>
  <rect x="33" y="19" width="1" height="1" fill="#b61212"/>
  <rect x="34" y="19" width="7" height="1" fill="#d21515"/>
  <rect x="41" y="19" width="5" height="1" fill="#99d9ea"/>
  <rect x="46" y="19" width="1" height="1" fill="#b61212"/>
  <rect x="47" y="19" width="4" height="1" fill="#d21515"/>
  <rect x="51" y="19" width="1" height="1" fill="#b61212"/>
  <rect x="52" y="19" width="11" height="1" fill="#99d9ea"/>
  <rect x="63" y="19" width="1" height="1" fill="#69c9e0"/>
  <rect x="0" y="20" width="1" height="1" fill="#69c9e0"/>
  <rect x="1" y="20" width="11" height="1" fill="#99d9ea"/>
  <rect x="12" y="20" width="1" height="1" fill="#7f7f7f"/>
  <rect x="13" y="20" width="3" height="1" fill="#9e9e9e"/>
  <rect x="16" y="20" width="1" height="1" fill="#7f7f7f"/>
  <rect x="17" y="20" width="5" height="1" fill="#99d9ea"/>
  <rect x="22" y="20" width="2" height="1" fill="#ffc90e"/>
  <rect x="24" y="20" width="1" height="1" fill="#7f7f7f"/>
  <rect x="25" y="20" width="4" height="1" fill="#9e9e9e"/>
  <rect x="29" y="20" width="1" height="1" fill="#7f7f7f"/>
  <rect x="30" y="20" width="3" height="1" fill="#ffc90e"/>
  <rect x="33" y="20" width="1" height="1" fill="#b61212"/>
  <rect x="34" y="20" width="7" height="1" fill="#d21515"/>
  <rect x="41" y="20" width="5" height="1" fill="#99d9ea"/>
  <rect x="46" y="20" width="1" height="1" fill="#b61212"/>
  <rect x="47" y="20" width="4" height="1" fill="#d21515"/>
  <rect x="51" y="20" width="1" height="1" fill="#b61212"/>
  <rect x="52" y="20" width="11" height="1" fill="#99d9ea"/>
  <rect x="63" y="20" width="1" height="1" fill="#69c9e0"/>
  <rect x="0" y="21" width="1" height="1" fill="#69c9e0"/>
  <rect x="1" y="21" width="11" height="1" fill="#99d9ea"/>
  <rect x="12" y="21" width="1" height="1" fill="#7f7f7f"/>
  <rect x="13" y="21" width="3" height="1" fill="#9e9e9e"/>
  <rect x="16" y="21" width="1" height="1" fill="#7f7f7f"/>
  <rect x="17" y="21" width="7" height="1" fill="#99d9ea"/>
  <rect x="24" y="21" width="1" height="1" fill="#7f7f7f"/>
  <rect x="25" y="21" width="4" height="1" fill="#9e9e9e"/>
  <rect x="29" y="21" width="1" height="1" fill="#7f7f7f"/>
  <rect x="30" y="21" width="3" height="1" fill="#99d9ea"/>
  <rect x="33" y="21" width="1" height="1" fill="#b61212"/>
  <rect x="34" y="21" width="7" height="1" fill="#d21515"/>
  <rect x="41" y="21" width="2" height="1" fill="#b61212"/>
  <rect x="43" y="21" width="3" height="1" fill="#99d9ea"/>
  <rect x="46" y="21" width="1" height="1" fill="#b61212"/>
  <rect x="47" y="21" width="4" height="1" fill="#d21515"/>
  <rect x="51" y="21" width="1" height="1" fill="#b61212"/>
  <rect x="52" y="21" width="11" height="1" fill="#99d9ea"/>
  <rect x="63" y="21" width="1" height="1" fill="#69c9e0"/>
  <rect x="0" y="22" width="1" height="1" fill="#69c9e0"/>
  <rect x="1" y="22" width="11" height="1" fill="#99d9ea"/>
  <rect x="12" y="22" width="1" height="1" fill="#7f7f7f"/>
  <rect x="13" y="22" width="3" height="1" fill="#9e9e9e"/>
  <rect x="16" y="22" width="1" height="1" fill="#7f7f7f"/>
  <rect x="17" y="22" width="7" height="1" fill="#99d9ea"/>
  <rect x="24" y="22" width="1" height="1" fill="#7f7f7f"/>
  <rect x="25" y="22" width="4" height="1" fill="#9e9e9e"/>
  <rect x="29" y="22" width="1" height="1" fill="#7f7f7f"/>
  <rect x="30" y="22" width="3" height="1" fill="#99d9ea"/>
  <rect x="33" y="22" width="1" height="1" fill="#b61212"/>
  <rect x="34" y="22" width="9" height="1" fill="#d21515"/>
  <rect x="43" y="22" width="3" height="1" fill="#99d9ea"/>
  <rect x="46" y="22" width="1" height="1" fill="#b61212"/>
  <rect x="47" y="22" width="4" height="1" fill="#d21515"/>
  <rect x="51" y="22" width="1" height="1" fill="#b61212"/>
  <rect x="52" y="22" width="11" height="1" fill="#99d9ea"/>
  <rect x="63" y="22" width="1" height="1" fill="#69c9e0"/>
  <rect x="0" y="23" width="1" height="1" fill="#69c9e0"/>
  <rect x="1" y="23" width="11" height="1" fill="#99d9ea"/>
  <rect x="12" y="23" width="1" height="1" fill="#7f7f7f"/>
  <rect x="13" y="23" width="3" height="1" fill="#9e9e9e"/>
  <rect x="16" y="23" width="1" height="1" fill="#7f7f7f"/>
  <rect x="17" y="23" width="5" height="1" fill="#99d9ea"/>
  <rect x="22" y="23" width="1" height="1" fill="#7f7f7f"/>
  <rect x="23" y="23" width="4" height="1" fill="#9e9e9e"/>
  <rect x="27" y="23" width="1" height="1" fill="#7f7f7f"/>
  <rect x="28" y="23" width="5" height="1" fill="#99d9ea"/>
  <rect x="33" y="23" width="1" height="1" fill="#b61212"/>
  <rect x="34" y="23" width="9" height="1" fill="#d21515"/>
  <rect x="43" y="23" width="3" height="1" fill="#99d9ea"/>
  <rect x="46" y="23" width="1" height="1" fill="#b61212"/>
  <rect x="47" y="23" width="4" height="1" fill="#d21515"/>
  <rect x="51" y="23" width="1" height="1" fill="#b61212"/>
  <rect x="52" y="23" width="11" height="1" fill="#99d9ea"/>
  <rect x="63" y="23" width="1" height="1" fill="#69c9e0"/>
  <rect x="0" y="24" width="1" height="1" fill="#69c9e0"/>
  <rect x="1" y="24" width="11" height="1" fill="#99d9ea"/>
  <rect x="12" y="24" width="1" height="1" fill="#7f7f7f"/>
  <rect x="13" y="24" width="3" height="1" fill="#9e9e9e"/>
  <rect x="16" y="24" width="1" height="1" fill="#7f7f7f"/>
  <rect x="17" y="24" width="5" height="1" fill="#99d9ea"/>
  <rect x="22" y="24" width="1" height="1" fill="#7f7f7f"/>
  <rect x="23" y="24" width="4" height="1" fill="#9e9e9e"/>
  <rect x="27" y="24" width="1" height="1" fill="#7f7f7f"/>
  <rect x="28" y="24" width="5" height="1" fill="#99d9ea"/>
  <rect x="33" y="24" width="1" height="1" fill="#b61212"/>
  <rect x="34" y="24" width="4" height="1" fill="#d21515"/>
  <rect x="38" y="24" width="3" height="1" fill="#b61212"/>
  <rect x="41" y="24" width="2" height="1" fill="#d21515"/>
  <rect x="43" y="24" width="3" height="1" fill="#99d9ea"/>
  <rect x="46" y="24" width="1" height="1" fill="#b61212"/>
  <rect x="47" y="24" width="4" height="1" fill="#d21515"/>
  <rect x="51" y="24" width="1" height="1" fill="#b61212"/>
  <rect x="52" y="24" width="11" height="1" fill="#99d9ea"/>
  <rect x="63" y="24" width="1" height="1" fill="#69c9e0"/>
  <rect x="0" y="25" width="1" height="1" fill="#69c9e0"/>
  <rect x="1" y="25" width="11" height="1" fill="#99d9ea"/>
  <rect x="12" y="25" width="1" height="1" fill="#7f7f7f"/>
  <rect x="13" y="25" width="4" height="1" fill="#9e9e9e"/>
  <rect x="17" y="25" width="5" height="1" fill="#7f7f7f"/>
  <rect x="22" y="25" width="2" height="1" fill="#9e9e9e"/>
  <rect x="24" y="25" width="1" height="1" fill="#7f7f7f"/>
  <rect x="25" y="25" width="8" height="1" fill="#99d9ea"/>
  <rect x="33" y="25" width="1" height="1" fill="#b61212"/>
  <rect x="34" y="25" width="4" height="1" fill="#d21515"/>
  <rect x="38" y="25" width="1" height="1" fill="#b61212"/>
  <rect x="39" y="25" width="2" height="1" fill="#99d9ea"/>
  <rect x="41" y="25" width="2" height="1" fill="#d21515"/>
  <rect x="43" y="25" width="3" height="1" fill="#b61212"/>
  <rect x="46" y="25" width="5" height="1" fill="#d21515"/>
  <rect x="51" y="25" width="1" height="1" fill="#b61212"/>
  <rect x="52" y="25" width="11" height="1" fill="#99d9ea"/>
  <rect x="63" y="25" width="1" height="1" fill="#69c9e0"/>
  <rect x="0" y="26" width="1" height="1" fill="#69c9e0"/>
  <rect x="1" y="26" width="11" height="1" fill="#99d9ea"/>
  <rect x="12" y="26" width="1" height="1" fill="#7f7f7f"/>
  <rect x="13" y="26" width="11" height="1" fill="#9e9e9e"/>
  <rect x="24" y="26" width="1" height="1" fill="#7f7f7f"/>
  <rect x="25" y="26" width="8" height="1" fill="#99d9ea"/>
  <rect x="33" y="26" width="1" height="1" fill="#b61212"/>
  <rect x="34" y="26" width="4" height="1" fill="#d21515"/>
  <rect x="38" y="26" width="1" height="1" fill="#b61212"/>
  <rect x="39" y="26" width="2" height="1" fill="#99d9ea"/>
  <rect x="41" y="26" width="10" height="1" fill="#d21515"/>
  <rect x="51" y="26" width="1" height="1" fill="#b61212"/>
  <rect x="52" y="26" width="11" height="1" fill="#99d9ea"/>
  <rect x="63" y="26" width="1" height="1" fill="#69c9e0"/>
  <rect x="0" y="27" width="1" height="1" fill="#69c9e0"/>
  <rect x="1" y="27" width="11" height="1" fill="#99d9ea"/>
  <rect x="12" y="27" width="1" height="1" fill="#7f7f7f"/>
  <rect x="13" y="27" width="11" height="1" fill="#9e9e9e"/>
  <rect x="24" y="27" width="1" height="1" fill="#7f7f7f"/>
  <rect x="25" y="27" width="8" height="1" fill="#99d9ea"/>
  <rect x="33" y="27" width="1" height="1" fill="#b61212"/>
  <rect x="34" y="27" width="4" height="1" fill="#d21515"/>
  <rect x="38" y="27" width="1" height="1" fill="#b61212"/>
  <rect x="39" y="27" width="2" height="1" fill="#99d9ea"/>
  <rect x="41" y="27" width="10" height="1" fill="#d21515"/>
  <rect x="51" y="27" width="1" height="1" fill="#b61212"/>
  <rect x="52" y="27" width="11" height="1" fill="#99d9ea"/>
  <rect x="63" y="27" width="1" height="1" fill="#69c9e0"/>
  <rect x="0" y="28" width="1" height="1" fill="#69c9e0"/>
  <rect x="1" y="28" width="11" height="1" fill="#99d9ea"/>
  <rect x="12" y="28" width="1" height="1" fill="#7f7f7f"/>
  <rect x="13" y="28" width="4" height="1" fill="#9e9e9e"/>
  <rect x="17" y="28" width="3" height="1" fill="#7f7f7f"/>
  <rect x="20" y="28" width="5" height="1" fill="#9e9e9e"/>
  <rect x="25" y="28" width="1" height="1" fill="#7f7f7f"/>
  <rect x="26" y="28" width="7" height="1" fill="#99d9ea"/>
  <rect x="33" y="28" width="1" height="1" fill="#b61212"/>
  <rect x="34" y="28" width="4" height="1" fill="#d21515"/>
  <rect x="38" y="28" width="1" height="1" fill="#b61212"/>
  <rect x="39" y="28" width="2" height="1" fill="#99d9ea"/>
  <rect x="41" y="28" width="2" height="1" fill="#b61212"/>
  <rect x="43" y="28" width="8" height="1" fill="#d21515"/>
  <rect x="51" y="28" width="1" height="1" fill="#b61212"/>
  <rect x="52" y="28" width="11" height="1" fill="#99d9ea"/>
  <rect x="63" y="28" width="1" height="1" fill="#69c9e0"/>
  <rect x="0" y="29" width="1" height="1" fill="#69c9e0"/>
  <rect x="1" y="29" width="11" height="1" fill="#99d9ea"/>
  <rect x="12" y="29" width="1" height="1" fill="#7f7f7f"/>
  <rect x="13" y="29" width="3" height="1" fill="#9e9e9e"/>
  <rect x="16" y="29" width="1" height="1" fill="#7f7f7f"/>
  <rect x="17" y="29" width="3" height="1" fill="#99d9ea"/>
  <rect x="20" y="29" width="1" height="1" fill="#7f7f7f"/>
  <rect x="21" y="29" width="4" height="1" fill="#9e9e9e"/>
  <rect x="25" y="29" width="1" height="1" fill="#7f7f7f"/>
  <rect x="26" y="29" width="7" height="1" fill="#99d9ea"/>
  <rect x="33" y="29" width="1" height="1" fill="#b61212"/>
  <rect x="34" y="29" width="4" height="1" fill="#d21515"/>
  <rect x="38" y="29" width="1" height="1" fill="#b61212"/>
  <rect x="39" y="29" width="4" height="1" fill="#99d9ea"/>
  <rect x="43" y="29" width="8" height="1" fill="#d21515"/>
  <rect x="51" y="29" width="1" height="1" fill="#b61212"/>
  <rect x="52" y="29" width="11" height="1" fill="#99d9ea"/>
  <rect x="63" y="29" width="1" height="1" fill="#69c9e0"/>
  <rect x="0" y="30" width="1" height="1" fill="#69c9e0"/>
  <rect x="1" y="30" width="11" height="1" fill="#99d9ea"/>
  <rect x="12" y="30" width="1" height="1" fill="#7f7f7f"/>
  <rect x="13" y="30" width="3" height="1" fill="#9e9e9e"/>
  <rect x="16" y="30" width="1" height="1" fill="#7f7f7f"/>
  <rect x="17" y="30" width="3" height="1" fill="#99d9ea"/>
  <rect x="20" y="30" width="1" height="1" fill="#7f7f7f"/>
  <rect x="21" y="30" width="6" height="1" fill="#9e9e9e"/>
  <rect x="27" y="30" width="1" height="1" fill="#7f7f7f"/>
  <rect x="28" y="30" width="5" height="1" fill="#99d9ea"/>
  <rect x="33" y="30" width="1" height="1" fill="#b61212"/>
  <rect x="34" y="30" width="4" height="1" fill="#d21515"/>
  <rect x="38" y="30" width="1" height="1" fill="#b61212"/>
  <rect x="39" y="30" width="4" height="1" fill="#99d9ea"/>
  <rect x="43" y="30" width="8" height="1" fill="#d21515"/>
  <rect x="51" y="30" width="1" height="1" fill="#b61212"/>
  <rect x="52" y="30" width="11" height="1" fill="#99d9ea"/>
  <rect x="63" y="30" width="1" height="1" fill="#69c9e0"/>
  <rect x="0" y="31" width="1" height="1" fill="#69c9e0"/>
  <rect x="1" y="31" width="11" height="1" fill="#99d9ea"/>
  <rect x="12" y="31" width="1" height="1" fill="#7f7f7f"/>
  <rect x="13" y="31" width="3" height="1" fill="#9e9e9e"/>
  <rect x="16" y="31" width="1" height="1" fill="#7f7f7f"/>
  <rect x="17" y="31" width="5" height="1" fill="#99d9ea"/>
  <rect x="22" y="31" width="1" height="1" fill="#7f7f7f"/>
  <rect x="23" y="31" width="4" height="1" fill="#9e9e9e"/>
  <rect x="27" y="31" width="1" height="1" fill="#7f7f7f"/>
  <rect x="28" y="31" width="5" height="1" fill="#99d9ea"/>
  <rect x="33" y="31" width="1" height="1" fill="#b61212"/>
  <rect x="34" y="31" width="4" height="1" fill="#d21515"/>
  <rect x="38" y="31" width="1" height="1" fill="#b61212"/>
  <rect x="39" y="31" width="4" height="1" fill="#99d9ea"/>
  <rect x="43" y="31" width="8" height="1" fill="#d21515"/>
  <rect x="51" y="31" width="1" height="1" fill="#b61212"/>
  <rect x="52" y="31" width="11" height="1" fill="#99d9ea"/>
  <rect x="63" y="31" width="1" height="1" fill="#69c9e0"/>
  <rect x="0" y="32" width="1" height="1" fill="#69c9e0"/>
  <rect x="1" y="32" width="11" height="1" fill="#99d9ea"/>
  <rect x="12" y="32" width="1" height="1" fill="#7f7f7f"/>
  <rect x="13" y="32" width="3" height="1" fill="#9e9e9e"/>
  <rect x="16" y="32" width="1" height="1" fill="#7f7f7f"/>
  <rect x="17" y="32" width="5" height="1" fill="#99d9ea"/>
  <rect x="22" y="32" width="1" height="1" fill="#7f7f7f"/>
  <rect x="23" y="32" width="4" height="1" fill="#9e9e9e"/>
  <rect x="27" y="32" width="1" height="1" fill="#7f7f7f"/>
  <rect x="28" y="32" width="5" height="1" fill="#99d9ea"/>
  <rect x="33" y="32" width="1" height="1" fill="#b61212"/>
  <rect x="34" y="32" width="4" height="1" fill="#d21515"/>
  <rect x="38" y="32" width="1" height="1" fill="#b61212"/>
  <rect x="39" y="32" width="4" height="1" fill="#99d9ea"/>
  <rect x="43" y="32" width="3" height="1" fill="#b61212"/>
  <rect x="46" y="32" width="5" height="1" fill="#d21515"/>
  <rect x="51" y="32" width="1" height="1" fill="#b61212"/>
  <rect x="52" y="32" width="11" height="1" fill="#99d9ea"/>
  <rect x="63" y="32" width="1" height="1" fill="#69c9e0"/>
  <rect x="0" y="33" width="1" height="1" fill="#69c9e0"/>
  <rect x="1" y="33" width="11" height="1" fill="#99d9ea"/>
  <rect x="12" y="33" width="1" height="1" fill="#7f7f7f"/>
  <rect x="13" y="33" width="3" height="1" fill="#9e9e9e"/>
  <rect x="16" y="33" width="1" height="1" fill="#7f7f7f"/>
  <rect x="17" y="33" width="7" height="1" fill="#99d9ea"/>
  <rect x="24" y="33" width="1" height="1" fill="#7f7f7f"/>
  <rect x="25" y="33" width="4" height="1" fill="#9e9e9e"/>
  <rect x="29" y="33" width="1" height="1" fill="#7f7f7f"/>
  <rect x="30" y="33" width="3" height="1" fill="#99d9ea"/>
  <rect x="33" y="33" width="1" height="1" fill="#b61212"/>
  <rect x="34" y="33" width="4" height="1" fill="#d21515"/>
  <rect x="38" y="33" width="1" height="1" fill="#b61212"/>
  <rect x="39" y="33" width="7" height="1" fill="#99d9ea"/>
  <rect x="46" y="33" width="1" height="1" fill="#b61212"/>
  <rect x="47" y="33" width="4" height="1" fill="#d21515"/>
  <rect x="51" y="33" width="1" height="1" fill="#b61212"/>
  <rect x="52" y="33" width="11" height="1" fill="#99d9ea"/>
  <rect x="63" y="33" width="1" height="1" fill="#69c9e0"/>
  <rect x="0" y="34" width="1" height="1" fill="#69c9e0"/>
  <rect x="1" y="34" width="11" height="1" fill="#99d9ea"/>
  <rect x="12" y="34" width="1" height="1" fill="#7f7f7f"/>
  <rect x="13" y="34" width="3" height="1" fill="#9e9e9e"/>
  <rect x="16" y="34" width="1" height="1" fill="#7f7f7f"/>
  <rect x="17" y="34" width="7" height="1" fill="#99d9ea"/>
  <rect x="24" y="34" width="1" height="1" fill="#7f7f7f"/>
  <rect x="25" y="34" width="4" height="1" fill="#9e9e9e"/>
  <rect x="29" y="34" width="1" height="1" fill="#7f7f7f"/>
  <rect x="30" y="34" width="3" height="1" fill="#99d9ea"/>
  <rect x="33" y="34" width="1" height="1" fill="#b61212"/>
  <rect x="34" y="34" width="4" height="1" fill="#d21515"/>
  <rect x="38" y="34" width="1" height="1" fill="#b61212"/>
  <rect x="39" y="34" width="7" height="1" fill="#99d9ea"/>
  <rect x="46" y="34" width="1" height="1" fill="#b61212"/>
  <rect x="47" y="34" width="4" height="1" fill="#d21515"/>
  <rect x="51" y="34" width="1" height="1" fill="#b61212"/>
  <rect x="52" y="34" width="11" height="1" fill="#99d9ea"/>
  <rect x="63" y="34" width="1" height="1" fill="#69c9e0"/>
  <rect x="0" y="35" width="1" height="1" fill="#69c9e0"/>
  <rect x="1" y="35" width="11" height="1" fill="#99d9ea"/>
  <rect x="12" y="35" width="1" height="1" fill="#7f7f7f"/>
  <rect x="13" y="35" width="3" height="1" fill="#9e9e9e"/>
  <rect x="16" y="35" width="1" height="1" fill="#7f7f7f"/>
  <rect x="17" y="35" width="7" height="1" fill="#99d9ea"/>
  <rect x="24" y="35" width="1" height="1" fill="#7f7f7f"/>
  <rect x="25" y="35" width="4" height="1" fill="#9e9e9e"/>
  <rect x="29" y="35" width="1" height="1" fill="#7f7f7f"/>
  <rect x="30" y="35" width="3" height="1" fill="#99d9ea"/>
  <rect x="33" y="35" width="1" height="1" fill="#b61212"/>
  <rect x="34" y="35" width="4" height="1" fill="#d21515"/>
  <rect x="38" y="35" width="1" height="1" fill="#b61212"/>
  <rect x="39" y="35" width="7" height="1" fill="#99d9ea"/>
  <rect x="46" y="35" width="1" height="1" fill="#b61212"/>
  <rect x="47" y="35" width="4" height="1" fill="#d21515"/>
  <rect x="51" y="35" width="1" height="1" fill="#b61212"/>
  <rect x="52" y="35" width="11" height="1" fill="#99d9ea"/>
  <rect x="63" y="35" width="1" height="1" fill="#69c9e0"/>
  <rect x="0" y="36" width="1" height="1" fill="#69c9e0"/>
  <rect x="1" y="36" width="62" height="1" fill="#99d9ea"/>
  <rect x="63" y="36" width="1" height="1" fill="#69c9e0"/>
  <rect x="0" y="37" width="1" height="1" fill="#69c9e0"/>
  <rect x="1" y="37" width="62" height="1" fill="#99d9ea"/>
  <rect x="63" y="37" width="1" height="1" fill="#69c9e0"/>
  <rect x="0" y="38" width="1" height="1" fill="#69c9e0"/>
  <rect x="1" y="38" width="10" height="1" fill="#99d9ea"/>
  <rect x="11" y="38" width="5" height="1" fill="#c3c3c3"/>
  <rect x="16" y="38" width="1" height="1" fill="#d9d9d9"/>
  <rect x="17" y="38" width="23" height="1" fill="#c3c3c3"/>
  <rect x="40" y="38" width="1" height="1" fill="#d9d9d9"/>
  <rect x="41" y="38" width="7" height="1" fill="#000000"/>
  <rect x="48" y="38" width="5" height="1" fill="#c3c3c3"/>
  <rect x="53" y="38" width="10" height="1" fill="#99d9ea"/>
  <rect x="63" y="38" width="1" height="1" fill="#69c9e0"/>
  <rect x="0" y="39" width="1" height="1" fill="#69c9e0"/>
  <rect x="1" y="39" width="10" height="1" fill="#99d9ea"/>
  <rect x="11" y="39" width="5" height="1" fill="#c3c3c3"/>
  <rect x="16" y="39" width="1" height="1" fill="#d9d9d9"/>
  <rect x="17" y="39" width="1" height="1" fill="#c3c3c3"/>
  <rect x="18" y="39" width="6" height="1" fill="#d21515"/>
  <rect x="24" y="39" width="16" height="1" fill="#c3c3c3"/>
  <rect x="40" y="39" width="1" height="1" fill="#d9d9d9"/>
  <rect x="41" y="39" width="7" height="1" fill="#000000"/>
  <rect x="48" y="39" width="5" height="1" fill="#c3c3c3"/>
  <rect x="53" y="39" width="10" height="1" fill="#99d9ea"/>
  <rect x="63" y="39" width="1" height="1" fill="#69c9e0"/>
  <rect x="0" y="40" width="1" height="1" fill="#69c9e0"/>
  <rect x="1" y="40" width="10" height="1" fill="#99d9ea"/>
  <rect x="11" y="40" width="5" height="1" fill="#c3c3c3"/>
  <rect x="16" y="40" width="1" height="1" fill="#d9d9d9"/>
  <rect x="17" y="40" width="23" height="1" fill="#c3c3c3"/>
  <rect x="40" y="40" width="1" height="1" fill="#d9d9d9"/>
  <rect x="41" y="40" width="7" height="1" fill="#000000"/>
  <rect x="48" y="40" width="5" height="1" fill="#c3c3c3"/>
  <rect x="53" y="40" width="10" height="1" fill="#99d9ea"/>
  <rect x="63" y="40" width="1" height="1" fill="#69c9e0"/>
  <rect x="0" y="41" width="1" height="1" fill="#69c9e0"/>
  <rect x="1" y="41" width="9" height="1" fill="#99d9ea"/>
  <rect x="10" y="41" width="6" height="1" fill="#c3c3c3"/>
  <rect x="16" y="41" width="1" height="1" fill="#d9d9d9"/>
  <rect x="17" y="41" width="1" height="1" fill="#c3c3c3"/>
  <rect x="18" y="41" width="9" height="1" fill="#d21515"/>
  <rect x="27" y="41" width="13" height="1" fill="#c3c3c3"/>
  <rect x="40" y="41" width="1" height="1" fill="#d9d9d9"/>
  <rect x="41" y="41" width="7" height="1" fill="#000000"/>
  <rect x="48" y="41" width="6" height="1" fill="#c3c3c3"/>
  <rect x="54" y="41" width="9" height="1" fill="#99d9ea"/>
  <rect x="63" y="41" width="1" height="1" fill="#69c9e0"/>
  <rect x="0" y="42" width="1" height="1" fill="#69c9e0"/>
  <rect x="1" y="42" width="9" height="1" fill="#99d9ea"/>
  <rect x="10" y="42" width="6" height="1" fill="#c3c3c3"/>
  <rect x="16" y="42" width="1" height="1" fill="#d9d9d9"/>
  <rect x="17" y="42" width="23" height="1" fill="#c3c3c3"/>
  <rect x="40" y="42" width="1" height="1" fill="#d9d9d9"/>
  <rect x="41" y="42" width="7" height="1" fill="#000000"/>
  <rect x="48" y="42" width="6" height="1" fill="#c3c3c3"/>
  <rect x="54" y="42" width="9" height="1" fill="#99d9ea"/>
  <rect x="63" y="42" width="1" height="1" fill="#69c9e0"/>
  <rect x="0" y="43" width="1" height="1" fill="#69c9e0"/>
  <rect x="1" y="43" width="9" height="1" fill="#99d9ea"/>
  <rect x="10" y="43" width="6" height="1" fill="#c3c3c3"/>
  <rect x="16" y="43" width="10" height="1" fill="#d9d9d9"/>
  <rect x="26" y="43" width="5" height="1" fill="#7f7f7f"/>
  <rect x="31" y="43" width="10" height="1" fill="#d9d9d9"/>
  <rect x="41" y="43" width="7" height="1" fill="#000000"/>
  <rect x="48" y="43" width="6" height="1" fill="#c3c3c3"/>
  <rect x="54" y="43" width="9" height="1" fill="#99d9ea"/>
  <rect x="63" y="43" width="1" height="1" fill="#69c9e0"/>
  <rect x="0" y="44" width="1" height="1" fill="#69c9e0"/>
  <rect x="1" y="44" width="9" height="1" fill="#99d9ea"/>
  <rect x="10" y="44" width="31" height="1" fill="#c3c3c3"/>
  <rect x="41" y="44" width="7" height="1" fill="#000000"/>
  <rect x="48" y="44" width="6" height="1" fill="#c3c3c3"/>
  <rect x="54" y="44" width="9" height="1" fill="#99d9ea"/>
  <rect x="63" y="44" width="1" height="1" fill="#69c9e0"/>
  <rect x="0" y="45" width="1" height="1" fill="#69c9e0"/>
  <rect x="1" y="45" width="9" height="1" fill="#99d9ea"/>
  <rect x="10" y="45" width="31" height="1" fill="#c3c3c3"/>
  <rect x="41" y="45" width="7" height="1" fill="#000000"/>
  <rect x="48" y="45" width="6" height="1" fill="#c3c3c3"/>
  <rect x="54" y="45" width="9" height="1" fill="#99d9ea"/>
  <rect x="63" y="45" width="1" height="1" fill="#69c9e0"/>
  <rect x="0" y="46" width="1" height="1" fill="#69c9e0"/>
  <rect x="1" y="46" width="9" height="1" fill="#99d9ea"/>
  <rect x="10" y="46" width="31" height="1" fill="#c3c3c3"/>
  <rect x="41" y="46" width="7" height="1" fill="#000000"/>
  <rect x="48" y="46" width="6" height="1" fill="#c3c3c3"/>
  <rect x="54" y="46" width="9" height="1" fill="#99d9ea"/>
  <rect x="63" y="46" width="1" height="1" fill="#69c9e0"/>
  <rect x="0" y="47" width="1" height="1" fill="#69c9e0"/>
  <rect x="1" y="47" width="9" height="1" fill="#99d9ea"/>
  <rect x="10" y="47" width="6" height="1" fill="#7f7f7f"/>
  <rect x="16" y="47" width="1" height="1" fill="#6a6a6a"/>
  <rect x="17" y="47" width="12" height="1" fill="#7f7f7f"/>
  <rect x="29" y="47" width="1" height="1" fill="#6a6a6a"/>
  <rect x="30" y="47" width="11" height="1" fill="#7f7f7f"/>
  <rect x="41" y="47" width="7" height="1" fill="#000000"/>
  <rect x="48" y="47" width="6" height="1" fill="#7f7f7f"/>
  <rect x="54" y="47" width="9" height="1" fill="#99d9ea"/>
  <rect x="63" y="47" width="1" height="1" fill="#69c9e0"/>
  <rect x="0" y="48" width="1" height="1" fill="#69c9e0"/>
  <rect x="1" y="48" width="9" height="1" fill="#99d9ea"/>
  <rect x="10" y="48" width="6" height="1" fill="#7f7f7f"/>
  <rect x="16" y="48" width="1" height="1" fill="#6a6a6a"/>
  <rect x="17" y="48" width="12" height="1" fill="#7f7f7f"/>
  <rect x="29" y="48" width="1" height="1" fill="#6a6a6a"/>
  <rect x="30" y="48" width="11" height="1" fill="#7f7f7f"/>
  <rect x="41" y="48" width="7" height="1" fill="#000000"/>
  <rect x="48" y="48" width="6" height="1" fill="#7f7f7f"/>
  <rect x="54" y="48" width="9" height="1" fill="#99d9ea"/>
  <rect x="63" y="48" width="1" height="1" fill="#69c9e0"/>
  <rect x="0" y="49" width="1" height="1" fill="#69c9e0"/>
  <rect x="1" y="49" width="9" height="1" fill="#99d9ea"/>
  <rect x="10" y="49" width="6" height="1" fill="#7f7f7f"/>
  <rect x="16" y="49" width="1" height="1" fill="#6a6a6a"/>
  <rect x="17" y="49" width="12" height="1" fill="#7f7f7f"/>
  <rect x="29" y="49" width="1" height="1" fill="#6a6a6a"/>
  <rect x="30" y="49" width="11" height="1" fill="#7f7f7f"/>
  <rect x="41" y="49" width="1" height="1" fill="#000000"/>
  <rect x="42" y="49" width="1" height="1" fill="#7f7f7f"/>
  <rect x="43" y="49" width="2" height="1" fill="#000000"/>
  <rect x="45" y="49" width="1" height="1" fill="#7f7f7f"/>
  <rect x="46" y="49" width="2" height="1" fill="#000000"/>
  <rect x="48" y="49" width="6" height="1" fill="#7f7f7f"/>
  <rect x="54" y="49" width="9" height="1" fill="#99d9ea"/>
  <rect x="63" y="49" width="1" height="1" fill="#69c9e0"/>
  <rect x="0" y="50" width="1" height="1" fill="#69c9e0"/>
  <rect x="1" y="50" width="10" height="1" fill="#99d9ea"/>
  <rect x="11" y="50" width="5" height="1" fill="#7f7f7f"/>
  <rect x="16" y="50" width="1" height="1" fill="#6a6a6a"/>
  <rect x="17" y="50" width="3" height="1" fill="#7f7f7f"/>
  <rect x="20" y="50" width="3" height="1" fill="#6a6a6a"/>
  <rect x="23" y="50" width="1" height="1" fill="#7f7f7f"/>
  <rect x="24" y="50" width="3" height="1" fill="#6a6a6a"/>
  <rect x="27" y="50" width="2" height="1" fill="#7f7f7f"/>
  <rect x="29" y="50" width="1" height="1" fill="#6a6a6a"/>
  <rect x="30" y="50" width="11" height="1" fill="#7f7f7f"/>
  <rect x="41" y="50" width="1" height="1" fill="#000000"/>
  <rect x="42" y="50" width="2" height="1" fill="#7f7f7f"/>
  <rect x="44" y="50" width="1" height="1" fill="#000000"/>
  <rect x="45" y="50" width="2" height="1" fill="#7f7f7f"/>
  <rect x="47" y="50" width="1" height="1" fill="#000000"/>
  <rect x="48" y="50" width="5" height="1" fill="#7f7f7f"/>
  <rect x="53" y="50" width="10" height="1" fill="#99d9ea"/>
  <rect x="63" y="50" width="1" height="1" fill="#69c9e0"/>
  <rect x="0" y="51" width="1" height="1" fill="#69c9e0"/>
  <rect x="1" y="51" width="10" height="1" fill="#99d9ea"/>
  <rect x="11" y="51" width="5" height="1" fill="#7f7f7f"/>
  <rect x="16" y="51" width="1" height="1" fill="#6a6a6a"/>
  <rect x="17" y="51" width="1" height="1" fill="#7f7f7f"/>
  <rect x="18" y="51" width="1" height="1" fill="#d21515"/>
  <rect x="19" y="51" width="1" height="1" fill="#7f7f7f"/>
  <rect x="20" y="51" width="3" height="1" fill="#6a6a6a"/>
  <rect x="23" y="51" width="1" height="1" fill="#7f7f7f"/>
  <rect x="24" y="51" width="3" height="1" fill="#6a6a6a"/>
  <rect x="27" y="51" width="2" height="1" fill="#7f7f7f"/>
  <rect x="29" y="51" width="1" height="1" fill="#6a6a6a"/>
  <rect x="30" y="51" width="11" height="1" fill="#7f7f7f"/>
  <rect x="41" y="51" width="1" height="1" fill="#000000"/>
  <rect x="42" y="51" width="2" height="1" fill="#7f7f7f"/>
  <rect x="44" y="51" width="1" height="1" fill="#000000"/>
  <rect x="45" y="51" width="2" height="1" fill="#7f7f7f"/>
  <rect x="47" y="51" width="1" height="1" fill="#000000"/>
  <rect x="48" y="51" width="5" height="1" fill="#7f7f7f"/>
  <rect x="53" y="51" width="10" height="1" fill="#99d9ea"/>
  <rect x="63" y="51" width="1" height="1" fill="#69c9e0"/>
  <rect x="1" y="52" width="1" height="1" fill="#69c9e0"/>
  <rect x="2" y="52" width="10" height="1" fill="#99d9ea"/>
  <rect x="12" y="52" width="4" height="1" fill="#7f7f7f"/>
  <rect x="16" y="52" width="1" height="1" fill="#6a6a6a"/>
  <rect x="17" y="52" width="12" height="1" fill="#7f7f7f"/>
  <rect x="29" y="52" width="1" height="1" fill="#6a6a6a"/>
  <rect x="30" y="52" width="11" height="1" fill="#7f7f7f"/>
  <rect x="41" y="52" width="7" height="1" fill="#000000"/>
  <rect x="48" y="52" width="4" height="1" fill="#7f7f7f"/>
  <rect x="52" y="52" width="10" height="1" fill="#99d9ea"/>
  <rect x="62" y="52" width="1" height="1" fill="#69c9e0"/>
  <rect x="1" y="53" width="1" height="1" fill="#69c9e0"/>
  <rect x="2" y="53" width="10" height="1" fill="#99d9ea"/>
  <rect x="12" y="53" width="4" height="1" fill="#7f7f7f"/>
  <rect x="16" y="53" width="14" height="1" fill="#6a6a6a"/>
  <rect x="30" y="53" width="11" height="1" fill="#7f7f7f"/>
  <rect x="41" y="53" width="7" height="1" fill="#000000"/>
  <rect x="48" y="53" width="4" height="1" fill="#7f7f7f"/>
  <rect x="52" y="53" width="10" height="1" fill="#99d9ea"/>
  <rect x="62" y="53" width="1" height="1" fill="#69c9e0"/>
  <rect x="2" y="54" width="1" height="1" fill="#69c9e0"/>
  <rect x="3" y="54" width="10" height="1" fill="#99d9ea"/>
  <rect x="13" y="54" width="28" height="1" fill="#7f7f7f"/>
  <rect x="41" y="54" width="7" height="1" fill="#000000"/>
  <rect x="48" y="54" width="3" height="1" fill="#7f7f7f"/>
  <rect x="51" y="54" width="10" height="1" fill="#99d9ea"/>
  <rect x="61" y="54" width="1" height="1" fill="#69c9e0"/>
  <rect x="3" y="55" width="1" height="1" fill="#69c9e0"/>
  <rect x="4" y="55" width="9" height="1" fill="#99d9ea"/>
  <rect x="13" y="55" width="28" height="1" fill="#7f7f7f"/>
  <rect x="41" y="55" width="7" height="1" fill="#000000"/>
  <rect x="48" y="55" width="3" height="1" fill="#7f7f7f"/>
  <rect x="51" y="55" width="9" height="1" fill="#99d9ea"/>
  <rect x="60" y="55" width="1" height="1" fill="#69c9e0"/>
  <rect x="4" y="56" width="1" height="1" fill="#69c9e0"/>
  <rect x="5" y="56" width="54" height="1" fill="#99d9ea"/>
  <rect x="59" y="56" width="1" height="1" fill="#69c9e0"/>
  <rect x="5" y="57" width="1" height="1" fill="#69c9e0"/>
  <rect x="6" y="57" width="52" height="1" fill="#99d9ea"/>
  <rect x="58" y="57" width="1" height="1" fill="#69c9e0"/>
  <rect x="6" y="58" width="2" height="1" fill="#69c9e0"/>
  <rect x="8" y="58" width="48" height="1" fill="#99d9ea"/>
  <rect x="56" y="58" width="2" height="1" fill="#69c9e0"/>
  <rect x="8" y="59" width="48" height="1" fill="#69c9e0"/>
</svg>
